
<svg viewBox="0 0 600.2 115.1" xmlns="http://www.w3.org/2000/svg">
  <path d="M12,81.2L0,34.2h10.8c4.4,21.6,6.8,35,6.8,35,1.8-8.6,6.5-23.7,9.3-35h9.1c2.4,9,8.6,34.6,8.6,34.6,1.6-10.3,6.4-27.3,8-34.6h9.9l-12.7,47h-10.5c-2.5-10.4-6.6-25.6-8.3-33.6h0c-1.7,8.4-5.9,24.2-8.5,33.6h-10.5Z" fill="currentColor"/>
  <path d="M72.7,65.6c0,4.4,2.2,8.7,7.1,8.7s5.2-1.6,6.2-3.8h9.8c-1.3,4.3-5.1,11.4-16.2,11.4s-16.7-8.7-16.7-17.9,5.7-19,17-19,16.2,8.8,16.2,17.6,0,2-.1,3c0,0-23.3,0-23.3,0ZM86.3,59.6c0-4.1-1.7-7.6-6.5-7.6s-6.6,3.2-7,7.6h13.5Z" fill="currentColor"/>
  <path d="M132,72c0,3.4.3,8.3.5,9.1h-9.3c-.3-.7-.5-2.6-.5-3.4-1.3,2-3.7,4.3-9.9,4.3s-12.1-5.6-12.1-11.1c0-8,6.5-11.7,16.8-11.7h5v-2.2c0-2.5-.9-5-5.4-5s-5,1.8-5.5,4.3h-9.3c.5-6.3,4.4-11.3,15.1-11.3,9.4,0,14.6,3.8,14.6,12.1v14.9ZM122.5,65.1h-4c-5.9,0-8.1,1.8-8.1,5.2s1.6,4.7,5.1,4.7c6.2,0,7-4.3,7-9,0,0,0-.9,0-.9Z" fill="currentColor"/>
  <path d="M140.9,81.2V31.5h9.8v49.7h-9.8Z" fill="currentColor"/>
  <path d="M156,45.9h5.4v-14.6h9.8v14.6h6.9v7.3h-6.9v17.4c0,2.7.8,3.7,3.7,3.7s1.5,0,2.2-.1v6.7c-1.9.7-4.6.7-6.6.7-6.9,0-9.2-3.7-9.2-9.8v-18.6h-5.4v-7.3h.1Z" fill="currentColor"/>
  <path d="M193.5,31.4v18.6c1.5-2.3,4.4-5,10.1-5s11.8,3.9,11.8,13.5v22.6h-9.7v-21.2c0-4.6-1.6-7-5.7-7s-6.5,4-6.5,9.5v18.7h-9.8V31.4h9.8,0Z" fill="currentColor"/>
  <path d="M232.1,67.4c1.1,4.7,4.5,6.8,9.9,6.8s7.7-2.1,7.7-5.6-2.3-5.5-10.3-7.4c-12.8-3-15.9-7.7-15.9-14s6.1-13.7,17.2-13.7,17.4,6.7,18.1,13.6h-10.2c-.5-2.9-2.1-6-8.1-6s-6.6,1.7-6.6,5,2,4.6,9.6,6.4c13.7,3.2,16.7,8.3,16.7,14.9s-6.5,14.5-18.9,14.5-18.2-5.9-19.3-14.4h10.2l-.1-.1h0Z" fill="currentColor"/>
  <path d="M297.7,70.9v10.2h-9.6c-.1-.9-.2-2.8-.3-4.1-2.1,3.5-5.2,4.9-9.7,4.9-7.2,0-11.8-4.4-11.8-13.1v-23h9.8v21c0,3.9,1.2,7.1,5.4,7.1s6.3-2.4,6.3-9.4v-18.8h9.8v25l.1.2h0Z" fill="currentColor"/>
  <path d="M316.2,78v16.6h-9.7v-48.8h9.5c.1.9.3,3.1.3,4.4,1.5-2.6,4.7-5.2,10.3-5.2,7.9,0,14,6.6,14,17.6s-6.8,19.3-15.4,19.3-7.6-1.9-8.9-3.9h-.1,0ZM330.6,63c0-6.5-2.6-10.1-7.3-10.1s-7.5,3.6-7.5,10.7,1.8,10.6,7.1,10.6,7.7-4,7.7-11.2h0Z" fill="currentColor"/>
  <path d="M355.4,65.6c0,4.4,2.2,8.7,7.1,8.7s5.2-1.6,6.2-3.8h9.8c-1.3,4.3-5.1,11.4-16.2,11.4s-16.7-8.7-16.7-17.9,5.7-19,17-19,16.2,8.8,16.2,17.6,0,2-.1,3c0,0-23.3,0-23.3,0ZM369,59.6c0-4.1-1.7-7.6-6.5-7.6s-6.6,3.2-7,7.6h13.5Z" fill="currentColor"/>
  <path d="M385.7,55.5v-9.6h9.6c.1.8.3,4.3.3,6.2,1.6-4,5.3-7,11.3-7v9.3c-7.1-.2-11.3,1.7-11.3,11.4v15.4h-9.8v-25.7s-.1,0-.1,0Z" fill="currentColor"/>
  <path d="M413.5,81.2v-47h12.6c5.9,10.5,16.7,29.6,18.9,34.7h.1c-.5-4.9-.5-13.1-.5-20.8v-13.9h9.2v47h-11.9c-5-9.2-17.1-31-19.4-36.5h-.1c.3,4.1.5,13.8.5,22.2v14.3h-9.4Z" fill="currentColor"/>
  <path d="M495.7,63.5c0,10.7-6.4,18.5-17.6,18.5s-17.3-7.8-17.3-18.3,6.6-18.6,17.8-18.6,17.1,7.3,17.1,18.4h0ZM470.8,63.5c0,6.8,2.9,10.8,7.6,10.8s7.4-4,7.4-10.7-2.7-10.9-7.6-10.9-7.5,3.4-7.5,10.8c0,0,.1,0,.1,0Z" fill="currentColor"/>
  <path d="M508.6,45.9c3.4,11.9,6.2,20,6.9,24.2,0,0,4.5-14,7.5-24.2h9.7l-12.5,35.3h-10.3l-11.9-35.3h10.6,0Z" fill="currentColor"/>
  <path d="M565.8,72c0,3.4.3,8.3.5,9.1h-9.3c-.3-.7-.5-2.6-.5-3.4-1.3,2-3.7,4.3-9.9,4.3s-12.1-5.6-12.1-11.1c0-8,6.5-11.7,16.8-11.7h5v-2.2c0-2.5-.9-5-5.4-5s-5,1.8-5.5,4.3h-9.3c.5-6.3,4.4-11.3,15.1-11.3,9.4,0,14.6,3.8,14.6,12.1v14.9h0ZM556.3,65.1h-4c-5.9,0-8.1,1.8-8.1,5.2s1.6,4.7,5.1,4.7c6.2,0,7-4.3,7-9,0,0,0-.9,0-.9Z" fill="currentColor"/>
  <path d="M600.2,34.9h0c-5-2.1-12-3.2-16.1-7.3s-4.9-10.8-7-15.8h0c-2.1,5-2.2,10.9-6.3,15s-11.7,6-16.8,8.1h0c5,2.1,12.5,2.9,16.5,7,4.1,4.1,4.4,11.1,6.5,16.1h0c2.1-5,3.5-12.5,7.6-16.6s10.4-4.4,15.5-6.5h.1Z" fill="currentColor"/>
  <path d="M237.4,99h0c-3.5-1.5-8.4-2.2-11.2-5.1s-3.4-7.5-4.9-11h0c-1.5,3.5-1.6,7.6-4.4,10.5s-8.2,4.2-11.7,5.6h0c3.5,1.5,8.7,2,11.5,4.9s3.1,7.7,4.5,11.2h0c1.5-3.5,2.4-8.8,5.3-11.6s7.3-3,10.8-4.5h.1,0Z" fill="currentColor"/>
  <path d="M413.1,14.3h0c-3.1-1.3-7.4-2-10-4.5s-3-6.7-4.3-9.8h0c-1.3,3.1-1.4,6.7-3.9,9.3s-7.3,3.7-10.4,5h0c3.1,1.3,7.7,1.8,10.2,4.3s2.7,6.8,4,10h0c1.3-3.1,2.2-7.8,4.7-10.3s6.5-2.7,9.6-4h.1,0Z" fill="currentColor"/>
</svg>
